mtllib Assembly 1.mtl
g Part 1
usemtl 0.513725_0.415686_0.733333_0.000000_0.000000
o mesh0
v -0.025 -0.025 0.025 
v -0.025 0.025 0.025 
v -0.025 0.025 -0.025 
v -0.025 -0.025 -0.025 
vn -0.999406 0.0243757 -0.0243757 
vn -0.999406 0.0243757 -0.0243757 
vn -0.999406 0.0243757 -0.0243757 
vn -0.999406 0.0243757 -0.0243757 
f 1//1 2//2 3//3 
f 3//3 4//4 1//1 
o mesh1
v -0.025 -0.025 -0.025 
v -0.025 0.025 -0.025 
v 0.025 0.025 -0.025 
v 0.025 -0.025 -0.025 
vn -0.0243757 0.0243757 -0.999406 
vn -0.0243757 0.0243757 -0.999406 
vn -0.0243757 0.0243757 -0.999406 
vn -0.0243757 0.0243757 -0.999406 
f 5//5 6//6 7//7 
f 7//7 8//8 5//5 
o mesh2
v 0.025 -0.025 -0.025 
v 0.025 0.025 -0.025 
v 0.025 0.025 0.025 
v 0.025 -0.025 0.025 
vn 0.999343 0.0256242 -0.0256242 
vn 0.999343 0.0256242 -0.0256242 
vn 0.999343 0.0256242 -0.0256242 
vn 0.999343 0.0256242 -0.0256242 
f 9//9 10//10 11//11 
f 11//11 12//12 9//9 
o mesh3
v 0.025 -0.025 0.025 
v 0.025 0.025 0.025 
v -0.025 0.025 0.025 
v -0.025 -0.025 0.025 
vn -0.0256242 0.0256242 0.999343 
vn -0.0256242 0.0256242 0.999343 
vn -0.0256242 0.0256242 0.999343 
vn -0.0256242 0.0256242 0.999343 
f 13//13 14//14 15//15 
f 15//15 16//16 13//13 
o mesh4
v 0.025 -0.025 0.025 
v -0.025 -0.025 0.025 
v -0.025 -0.025 -0.025 
v 0.025 -0.025 -0.025 
vn -0.0256242 -0.999343 -0.0256242 
vn -0.0256242 -0.999343 -0.0256242 
vn -0.0256242 -0.999343 -0.0256242 
vn -0.0256242 -0.999343 -0.0256242 
f 17//17 18//18 19//19 
f 19//19 20//20 17//17 
o mesh5
v 0.025 0.025 -0.025 
v -0.025 0.025 -0.025 
v -0.025 0.025 0.025 
v 0.025 0.025 0.025 
vn -0.0243757 0.999406 -0.0243757 
vn -0.0243757 0.999406 -0.0243757 
vn -0.0243757 0.999406 -0.0243757 
vn -0.0243757 0.999406 -0.0243757 
f 21//21 22//22 23//23 
f 23//23 24//24 21//21 
g Part 2
usemtl 0.647059_0.647059_0.647059_0.000000_0.000000
o mesh6
v -0.04518 -0.025 0.01 
v -0.04518 0.025 0.01 
v -0.04518 0.025 -0.01 
v -0.04518 -0.025 -0.01 
vn -0.999078 0.0255889 -0.0344678 
vn -0.999078 0.0255889 -0.0344678 
vn -0.999078 0.0255889 -0.0344678 
vn -0.999078 0.0255889 -0.0344678 
f 25//25 26//26 27//27 
f 27//27 28//28 25//25 
o mesh7
v -0.04518 -0.025 -0.01 
v -0.04518 0.025 -0.01 
v -0.025 0.025 -0.01 
v -0.025 -0.025 -0.01 
vn 0.0231237 0.024172 -0.99944 
vn 0.0231237 0.024172 -0.99944 
vn 0.0231237 0.024172 -0.99944 
vn 0.0231237 0.024172 -0.99944 
f 29//29 30//30 31//31 
f 31//31 32//32 29//29 
o mesh8
v -0.025 -0.025 -0.01 
v -0.025 0.025 -0.01 
v -0.025 0.025 0.01 
v -0.025 -0.025 0.01 
vn 0.999162 0.0243956 -0.0328605 
vn 0.999162 0.0243956 -0.0328605 
vn 0.999162 0.0243956 -0.0328605 
vn 0.999162 0.0243956 -0.0328605 
f 33//33 34//34 35//35 
f 35//35 36//36 33//33 
o mesh9
v -0.025 -0.025 0.01 
v -0.025 0.025 0.01 
v -0.04518 0.025 0.01 
v -0.04518 -0.025 0.01 
vn 0.0247333 0.0258546 0.99936 
vn 0.0247333 0.0258546 0.99936 
vn 0.0247333 0.0258546 0.99936 
vn 0.0247333 0.0258546 0.99936 
f 37//37 38//38 39//39 
f 39//39 40//40 37//37 
o mesh10
v -0.025 -0.025 0.01 
v -0.04518 -0.025 0.01 
v -0.04518 -0.025 -0.01 
v -0.025 -0.025 -0.01 
vn 0.024507 -0.999104 -0.0345071 
vn 0.024507 -0.999104 -0.0345071 
vn 0.024507 -0.999104 -0.0345071 
vn 0.024507 -0.999104 -0.0345071 
f 41//41 42//42 43//43 
f 43//43 44//44 41//41 
o mesh11
v -0.025 0.025 -0.01 
v -0.04518 0.025 -0.01 
v -0.04518 0.025 0.01 
v -0.025 0.025 0.01 
vn 0.0233135 0.999189 -0.0328266 
vn 0.0233135 0.999189 -0.0328266 
vn 0.0233135 0.999189 -0.0328266 
vn 0.0233135 0.999189 -0.0328266 
f 45//45 46//46 47//47 
f 47//47 48//48 45//45 
